<?xml version="1.0" standalone="no"?>
<!DOCTYPE svg PUBLIC "-//W3C//DTD SVG 20010904//EN"
 "http://www.w3.org/TR/2001/REC-SVG-20010904/DTD/svg10.dtd">
<svg version="1.0" xmlns="http://www.w3.org/2000/svg"
 width="700.000000pt" height="700.000000pt" viewBox="0 0 700.000000 700.000000"
 preserveAspectRatio="xMidYMid meet">
<metadata>
Created by potrace 1.11, written by Peter Selinger 2001-2013
</metadata>
<g transform="translate(0.000000,700.000000) scale(0.100000,-0.100000)"
fill="#000000" stroke="none">
<path d="M4045 6977 c-26 -14 -48 -37 -61 -64 -20 -40 -22 -57 -20 -246 1
-199 2 -204 26 -239 39 -58 79 -76 173 -77 l47 -1 0 -348 0 -348 -143 -1 c-86
0 -158 -5 -181 -13 -66 -22 -136 -99 -136 -151 0 -10 -6 -21 -12 -26 -7 -4
-228 -8 -490 -8 l-477 0 -73 129 c-40 72 -92 148 -114 171 l-42 41 0 414 c-1
447 -2 462 -55 553 -33 55 -92 109 -156 141 -59 30 -88 37 -167 37 -169 0
-320 -122 -360 -291 -4 -19 -8 -221 -8 -448 l-1 -413 -31 -24 c-29 -23 -104
-135 -104 -156 0 -5 -3 -9 -7 -9 -5 0 -19 -22 -32 -48 -12 -27 -31 -59 -41
-72 l-19 -25 -388 -1 c-424 -2 -433 -3 -514 -62 -181 -134 -176 -406 11 -530
82 -54 93 -56 508 -56 l383 -1 18 -23 c9 -13 26 -40 37 -60 57 -109 118 -204
147 -228 l32 -27 0 -611 c0 -594 1 -612 20 -638 11 -15 35 -33 53 -40 l32 -12
0 -96 0 -96 -38 -17 c-71 -31 -67 35 -67 -1041 l0 -971 -265 -1 c-314 -1 -348
-7 -429 -80 -29 -26 -64 -70 -79 -98 l-27 -51 -3 -322 -3 -321 30 -34 29 -33
2025 0 c2004 0 2025 0 2047 20 12 11 27 33 34 50 l13 30 94 -2 c116 -2 111 -1
105 -11 -9 -15 33 -72 60 -82 36 -14 736 -13 767 1 55 25 57 41 56 371 -1 339
-4 362 -69 442 -76 95 -144 119 -342 120 -81 0 -148 3 -149 6 -1 3 -2 75 -4
160 -2 172 -9 200 -66 265 -56 63 -104 79 -249 81 -149 2 -143 2 -135 13 7 13
8 115 0 170 -7 55 -49 179 -83 246 -118 236 -298 333 -465 252 -168 -83 -323
-387 -312 -612 l3 -70 -132 -1 c-149 -1 -180 -10 -245 -75 -59 -60 -71 -106
-71 -284 l0 -151 -692 1 -693 0 -1 1760 -1 1760 36 35 c20 19 72 96 115 170
l78 135 483 0 484 1 10 -41 c14 -56 71 -120 126 -141 33 -12 77 -17 166 -18
l120 0 -6 -26 c-4 -14 -13 -38 -21 -54 -8 -16 -14 -33 -14 -37 0 -25 -190
-293 -295 -416 -5 -7 -15 -18 -20 -25 -6 -7 -82 -105 -170 -218 -87 -113 -162
-207 -165 -210 -3 -3 -17 -21 -30 -40 -13 -19 -27 -37 -30 -40 -3 -3 -21 -25
-40 -50 -19 -25 -39 -50 -45 -57 -11 -14 -18 -22 -61 -78 -258 -331 -85 -816
323 -909 52 -12 257 -14 1245 -12 1172 2 1184 2 1243 23 72 25 124 53 187 101
179 135 258 399 184 615 -34 101 -66 150 -239 367 -51 64 -562 720 -604 775
-54 71 -118 184 -133 233 -4 15 -11 34 -14 42 -6 14 11 16 123 17 148 1 200
17 248 80 45 59 50 102 48 463 -2 374 -3 381 -71 445 -52 49 -89 58 -251 58
-79 1 -144 3 -144 6 -1 4 -2 160 -3 349 l-1 342 30 1 c110 2 152 20 191 79 27
40 27 41 27 243 0 211 -2 226 -47 275 -44 49 -56 51 -345 52 -304 1 -320 -2
-342 -67 -11 -35 -9 -35 -114 -35 -105 0 -103 0 -107 29 -2 18 -15 35 -37 50
-33 23 -39 23 -305 23 -262 0 -272 -1 -311 -23z"/>
</g>
</svg>
