<svg class="lock" width="17" height="24" viewBox="0 0 17 24" fill="none" xmlns="http://www.w3.org/2000/svg">
<rect class="lock-body" x="0.5" y="9.5" width="16" height="14" stroke="#12A9EB"/>
<path class="lock-head" d="M14.5 5.5C14.5 3 12.9 0.5 8.5 0.5C4.1 0.5 2.5 3 2.5 5.5V9.5" stroke="#12A9EB"/>
<path class="lock-heart" d="M9 17.5C9.13882 17.5 9.31619 17.4615 9.5 17.3737M8 17.5C7.8266 17.5 7.6579 17.453 7.5 17.3692M10.4859 15.2704C10.4956 15.3527 10.5 15.43 10.5 15.5C10.5 15.6809 10.4855 15.8473 10.459 16M10.4859 15.2704C10.4028 14.5682 9.93211 13.5 8.5 13.5C6.9 13.5 6.5 14.8333 6.5 15.5C6.5 16.2832 6.92943 17.0665 7.5 17.3692M10.4859 15.2704L10.459 16M10.459 16C10.4267 16.1865 10.3766 16.3527 10.3135 16.5M10.3135 16.5C10.2286 16.6982 10.1202 16.8624 10 16.9965M10.3135 16.5L10 16.9965M10 16.9965C9.84466 17.1697 9.66959 17.2927 9.5 17.3737M9.5 17.3737V19.5H7.5V17.3692" stroke="#12A9EB"/>
</svg>
