<svg xmlns="http://www.w3.org/2000/svg" width="30" height="30" viewBox="1.983 1.99 29.01 29.01"><path paint-order="stroke fill markers" fill-rule="evenodd" d="M16.489 1.99C8.49 1.99 1.983 8.497 1.983 16.496 1.983 24.494 8.49 31 16.49 31c7.998 0 14.505-6.507 14.505-14.505 0-7.999-6.507-14.506-14.505-14.506zM7.966 26.967c.845-.792 2.17-1.462 3.836-1.924.807-.318 1.324-.57 1.745-.992.427-.427.68-.873.77-1.365.076-.42.025-2.097.007-2.6l-.007-.195-.137-.138c-.488-.494-.919-1.342-1.358-2.669l-.03-.344-.374.015c-.089-.04-.355-.323-.43-.723-.067-.35-.045-.605-.013-.727l.331-.056-.091-.497c-.553-3.017-.29-5.2.783-6.487.767-.92 1.987-1.387 3.633-1.387 1.396-.019 1.54.18 1.71.41.118.162.28.384.605.576l.128.076.148-.007c.642-.033 1.112.168 1.458.605.826 1.045.864 3.46.095 6.152l-.08.478.38.12c.029.116.05.38-.032.748-.067.299-.239.529-.36.641l-.405-.304-.2.691c-.355 1.221-.704 2.152-1.256 2.725l-.139.145.004 2.53c.108.867.485 1.233.85 1.588l.232.227c.35.286.622.412 1.496.792 1.603.447 2.909 1.112 3.746 1.896a13.442 13.442 0 0 1-8.522 3.039c-3.23 0-6.196-1.142-8.523-3.04zm17.788-.665c-.956-.921-2.423-1.687-4.154-2.165-.785-.346-.96-.431-1.158-.59l-.211-.209c-.317-.308-.492-.477-.553-.936v-2.076c.556-.647.91-1.509 1.254-2.645.492-.183.944-.812 1.083-1.43.157-.71.082-1.305-.188-1.636.776-2.932.644-5.418-.367-6.694-.511-.645-1.239-.984-2.112-.986-.083-.067-.137-.142-.205-.234-.36-.494-.726-.85-2.52-.817-1.947 0-3.424.587-4.389 1.744-1.236 1.484-1.587 3.85-1.045 7.035-.233.334-.304.891-.179 1.553.12.634.516 1.197.949 1.42.426 1.235.868 2.093 1.377 2.67.03.956.04 1.997.002 2.2-.054.29-.21.558-.494.842-.265.265-.62.46-1.357.753-1.81.499-3.3 1.271-4.264 2.2-2.607-2.464-4.245-5.943-4.245-9.805 0-7.45 6.061-13.51 13.51-13.51 7.45 0 13.51 6.06 13.51 13.51 0 3.862-1.637 7.342-4.244 9.806z"/></svg>